# xmcd
# 
# Track frame offsets:
#     182
#     9847
#     25877
#     38097
#     48712
#     61190
#     75482
#     85660
#     100380
#     114515
#     125020
#     136185
#     147050
#     159082
#     173527
#     182740
# 
# Disc length: 2598
# 
# Revision: 4
# Processed by: cddbd v1.5.2PL0 Copyright (c) Steve Scherf et al.
# Submitted via: BonkEnc v1.0beta4
# 
DISCID=bc0a2410
DTITLE=Memphis Slim - Jazz and Blues collection - CD 4
DYEAR=1959
DGENRE=Blues
TTITLE0=Rockin' The House
TTITLE1=Mother Earth
TTITLE2=Stroll On Little Girl
TTITLE3=Gotta Find My Baby
TTITLE4=Sassy Mae
TTITLE5=Slim's Blues
TTITLE6=Guitar Cha Cha
TTITLE7=Lend Me Your Love
TTITLE8=Messin' Around
TTITLE9=The Comeback
TTITLE10=This Time I'm Through
TTITLE11=What's The Matter
TTITLE12=My Gal Keeps Me Crying
TTITLE13=Blue And Lonesome
TTITLE14=Steppin' Out
TTITLE15=Wish Me Well
EXTD=
EXTT0=
EXTT1=
EXTT2=
EXTT3=
EXTT4=
EXTT5=
EXTT6=
EXTT7=
EXTT8=
EXTT9=
EXTT10=
EXTT11=
EXTT12=
EXTT13=
EXTT14=
EXTT15=
PLAYORDER=
